<?xml version="1.0" standalone="no"?>
<!DOCTYPE svg PUBLIC "-//W3C//DTD SVG 20010904//EN"
 "http://www.w3.org/TR/2001/REC-SVG-20010904/DTD/svg10.dtd">
<svg version="1.0" xmlns="http://www.w3.org/2000/svg"
 width="480.000000pt" height="480.000000pt" viewBox="0 0 480.000000 480.000000"
 preserveAspectRatio="xMidYMid meet">
<metadata>
Created by potrace 1.11, written by Peter Selinger 2001-2013
</metadata>
<g transform="translate(0.000000,480.000000) scale(0.100000,-0.100000)"
fill="#000000" stroke="none">
<path d="M2780 4627 c-3 -3 -34 -8 -70 -11 -102 -11 -234 -48 -376 -107 -78
-32 -94 -40 -204 -102 -138 -77 -294 -201 -414 -328 -140 -148 -231 -303 -281
-473 -14 -49 -25 -93 -25 -98 0 -5 -9 -17 -20 -26 -18 -15 -20 -34 -26 -187
-13 -327 -9 -518 12 -636 22 -121 81 -268 140 -345 19 -24 34 -46 34 -49 0 -2
-39 -30 -87 -63 -144 -96 -188 -127 -193 -133 -3 -3 -43 -34 -90 -69 -176
-133 -367 -315 -461 -440 -216 -287 -240 -642 -56 -832 251 -259 713 -103
1028 347 109 155 236 404 309 605 23 63 43 116 44 117 2 2 52 -16 112 -38 179
-68 396 -117 594 -135 41 -3 89 -8 105 -10 43 -5 386 -6 410 -1 11 3 40 8 65
11 188 26 356 100 550 245 81 60 275 248 357 346 115 138 206 301 247 445 25
88 27 108 31 245 10 323 -71 532 -304 790 -36 40 -91 113 -121 161 -135 218
-348 439 -548 569 -150 96 -302 160 -452 188 -71 13 -300 23 -310 14z"/>
</g>
</svg>
